<?xml version="1.0" standalone="no"?>
<!DOCTYPE svg PUBLIC "-//W3C//DTD SVG 20010904//EN"
 "http://www.w3.org/TR/2001/REC-SVG-20010904/DTD/svg10.dtd">
<svg version="1.0" xmlns="http://www.w3.org/2000/svg"
 width="200.000000pt" height="200.000000pt" viewBox="0 0 200.000000 200.000000"
 preserveAspectRatio="xMidYMid meet">
<metadata>
Created by potrace 1.11, written by Peter Selinger 2001-2013
</metadata>
<g transform="translate(0.000000,200.000000) scale(0.100000,-0.100000)"
fill="#000000" stroke="none">
<path d="M1596 1883 c-14 -13 -17 -14 -12 -3 14 29 -26 -26 -44 -60 -20 -39
-21 -151 -2 -158 6 -2 8 -10 5 -18 -3 -7 2 -17 11 -20 9 -3 16 -12 16 -20 0
-8 5 -14 10 -14 6 0 10 -4 10 -10 0 -5 -7 -10 -15 -10 -7 0 -18 -8 -24 -17 -5
-10 -12 -17 -16 -15 -4 2 -17 -8 -30 -22 -13 -14 -21 -26 -17 -26 4 -1 -4 -7
-18 -15 -14 -8 -22 -14 -17 -15 4 0 -11 -18 -33 -40 -22 -22 -40 -45 -40 -50
0 -6 -4 -9 -9 -8 -5 2 -9 -1 -9 -5 -1 -5 -12 -17 -27 -28 -14 -12 -23 -25 -20
-30 4 -5 2 -9 -4 -9 -9 0 -22 -41 -27 -90 -1 -14 -3 -25 -4 -25 -1 0 -4 -13
-5 -30 -5 -42 -14 -96 -21 -125 -7 -28 -8 -78 -3 -99 2 -7 -2 -16 -10 -19 -8
-2 -11 0 -8 5 3 5 -16 32 -43 61 -28 28 -50 49 -50 46 0 -3 -11 6 -25 20 -14
14 -25 32 -25 41 0 8 -4 15 -10 15 -5 0 -10 9 -10 19 0 11 -4 22 -10 26 -5 3
-7 12 -3 20 3 8 0 15 -7 15 -6 0 -9 4 -5 9 3 5 1 12 -5 16 -6 4 -8 10 -5 15 3
5 1 11 -5 15 -6 4 -8 11 -5 16 4 5 2 9 -3 9 -5 0 -12 13 -15 29 -3 16 -13 35
-21 44 -8 8 -12 17 -9 21 4 3 1 6 -6 6 -7 0 -10 4 -7 9 4 5 0 12 -6 14 -7 3 0
6 15 6 16 1 26 5 22 11 -3 6 1 13 9 16 9 3 16 11 16 18 0 6 6 23 14 38 8 15
12 29 8 32 -3 3 -6 24 -7 47 -1 22 -7 44 -14 49 -7 4 -13 11 -14 16 -1 12 -27
38 -27 27 0 -4 -4 -3 -8 3 -11 17 -52 28 -52 13 0 -8 -5 -8 -17 2 -9 8 -14 9
-10 3 3 -6 -5 -16 -19 -23 -14 -6 -23 -15 -20 -20 4 -5 1 -11 -4 -13 -6 -2
-12 -13 -13 -26 0 -12 -4 -22 -8 -22 -12 0 -1 -82 16 -122 8 -21 18 -38 21
-38 3 0 2 5 -2 12 -4 6 -3 8 4 5 12 -8 4 -47 -10 -47 -14 0 -97 -88 -90 -94 3
-4 -2 -6 -11 -6 -9 0 -16 -4 -14 -8 1 -5 -18 -28 -43 -52 -25 -24 -44 -47 -43
-52 2 -4 -2 -8 -7 -8 -6 0 -10 -7 -10 -15 0 -8 -4 -15 -8 -15 -5 0 -8 -16 -7
-36 0 -19 -2 -37 -5 -39 -3 -2 -7 -21 -8 -43 -2 -22 -7 -55 -12 -73 -6 -19
-10 -55 -10 -81 0 -37 4 -48 16 -48 9 0 14 -6 11 -13 -3 -8 3 -13 14 -13 11 0
19 4 19 9 0 4 3 6 8 3 4 -2 16 2 27 10 13 10 15 14 4 14 -10 0 -11 2 -2 8 6 4
15 28 18 52 7 55 13 85 15 85 1 0 3 14 5 30 3 49 15 75 33 75 10 0 13 -3 7 -8
-6 -4 -10 -14 -10 -22 1 -8 -3 -32 -7 -53 -11 -48 -21 -109 -21 -124 0 -7 -3
-13 -6 -13 -4 0 -6 -16 -5 -35 1 -19 -2 -38 -7 -41 -5 -3 -7 -9 -4 -14 3 -5 1
-29 -4 -53 -9 -38 -19 -96 -25 -149 -1 -9 -8 -23 -15 -32 -8 -9 -11 -16 -7
-16 3 0 -3 -16 -14 -37 -10 -20 -17 -40 -14 -45 3 -4 1 -8 -4 -8 -5 0 -13 -10
-17 -23 -4 -12 -8 -24 -9 -27 -1 -3 -12 -24 -24 -48 -12 -23 -20 -42 -16 -42
4 0 2 -6 -4 -13 -22 -26 9 -153 31 -130 4 3 7 1 7 -5 0 -18 57 -15 64 4 3 8
10 13 14 10 5 -3 19 24 33 59 13 36 27 65 32 65 4 0 7 4 7 9 0 5 5 22 12 38 6
15 12 30 13 33 5 16 47 108 55 122 5 10 10 26 10 36 0 10 5 23 12 30 8 8 8 12
1 12 -8 0 -8 12 0 43 5 23 11 43 12 45 6 7 35 -12 35 -22 0 -7 9 -22 20 -34
11 -12 20 -28 20 -37 0 -9 4 -14 8 -11 18 11 36 -43 48 -144 3 -25 7 -56 10
-70 2 -14 7 -47 10 -75 3 -27 10 -55 16 -62 5 -7 8 -16 5 -20 -8 -16 30 -39
62 -39 63 1 86 60 68 171 -4 22 -9 60 -13 85 -3 25 -8 59 -10 75 -2 17 -5 44
-7 62 -1 17 -5 34 -9 38 -4 4 -4 13 -1 21 3 8 0 14 -7 14 -6 0 -9 4 -6 9 3 5
-1 12 -10 15 -8 3 -12 10 -9 16 3 5 2 10 -4 10 -5 0 -13 10 -17 22 -3 12 -12
28 -18 35 -29 33 -36 43 -30 43 4 0 -2 9 -14 20 -12 12 -22 27 -22 34 0 8 -7
19 -15 26 -12 10 -14 24 -10 59 4 25 7 55 9 66 1 11 6 35 10 54 l8 34 14 -32
c12 -29 68 -91 81 -91 2 0 22 -18 44 -41 21 -22 39 -37 39 -32 0 4 4 3 8 -4
13 -21 56 9 68 47 13 39 26 47 46 28 21 -20 37 -20 57 -1 25 24 38 53 35 81 0
12 1 22 5 22 3 0 7 21 9 46 1 26 5 51 9 57 3 6 8 27 10 46 4 54 6 61 11 56 3
-3 10 3 17 12 10 14 12 11 8 -18 -2 -19 -5 -45 -7 -59 -3 -14 -5 -33 -5 -43
-1 -11 -6 -15 -12 -11 -8 4 -8 1 -1 -13 6 -11 7 -25 2 -33 -4 -7 -7 -22 -5
-32 2 -10 1 -18 -4 -18 -4 0 -6 -12 -6 -27 1 -16 -1 -32 -4 -38 -3 -5 -6 -17
-8 -25 -13 -87 -15 -107 -15 -122 0 -10 -2 -18 -6 -18 -4 0 -8 -12 -9 -27 -4
-67 -12 -112 -22 -132 -7 -12 -9 -21 -6 -21 3 0 -1 -10 -9 -22 -9 -12 -16 -30
-16 -40 0 -10 -4 -18 -10 -18 -5 0 -10 -9 -10 -20 0 -11 -5 -20 -11 -20 -5 0
-8 -4 -4 -9 3 -5 1 -12 -5 -16 -6 -4 -8 -11 -5 -16 4 -5 1 -9 -4 -9 -6 0 -10
-3 -9 -7 1 -5 -8 -30 -20 -56 -12 -27 -22 -53 -22 -58 0 -5 -4 -9 -9 -9 -12 0
-7 -81 7 -108 7 -12 10 -22 6 -22 -4 0 3 -9 16 -20 31 -27 71 -25 104 5 15 14
24 25 20 25 -3 0 -1 7 6 15 7 8 9 15 4 15 -5 0 -4 4 1 8 6 4 31 54 55 112 24
58 49 108 55 112 5 4 6 8 2 8 -4 0 -2 10 5 23 7 12 13 24 14 27 0 3 4 14 8 25
24 61 25 66 28 122 2 24 6 43 11 43 4 0 7 17 7 37 0 36 0 36 19 17 10 -10 18
-21 17 -24 -1 -7 34 -57 62 -87 25 -27 28 -37 10 -28 -7 4 -3 -2 9 -13 12 -11
19 -22 16 -26 -4 -3 -2 -6 3 -6 5 0 10 -15 11 -32 1 -18 4 -45 7 -60 4 -16 7
-46 9 -68 1 -22 4 -40 8 -40 3 0 5 -10 6 -22 0 -20 3 -49 15 -133 5 -31 55
-75 87 -75 61 0 94 78 77 185 -3 17 -8 55 -12 85 -10 82 -12 95 -14 95 -1 0
-3 18 -6 40 -9 92 -19 130 -44 165 -12 17 -19 30 -16 30 3 0 -4 12 -17 26 -12
14 -21 28 -19 30 1 3 -4 12 -13 20 -8 9 -15 23 -15 31 0 9 -3 13 -6 10 -4 -4
-16 10 -27 31 -11 20 -25 40 -31 44 -6 4 -7 8 -1 8 6 0 3 4 -4 9 -9 6 -15 25
-14 48 0 32 8 88 13 88 1 0 5 32 12 104 1 10 5 9 14 -4 8 -10 11 -22 8 -26 -3
-5 0 -9 6 -9 6 0 8 -5 5 -10 -3 -5 1 -10 10 -10 9 0 13 -4 10 -10 -3 -5 -2
-10 3 -10 6 0 35 -24 66 -54 31 -30 56 -52 56 -49 0 3 10 -6 21 -21 12 -15 24
-25 27 -22 3 3 11 1 19 -5 9 -9 13 -8 13 0 0 6 7 11 15 11 8 0 15 7 15 15 0 8
4 15 8 15 4 0 9 10 10 23 3 35 -8 87 -19 87 -6 0 -22 14 -36 30 -13 17 -31 30
-39 30 -8 0 -13 4 -12 9 2 5 -12 23 -30 41 -32 30 -72 106 -72 136 0 8 -4 14
-8 14 -5 0 -9 6 -10 13 -2 22 -13 55 -39 117 -3 8 -7 17 -7 20 -4 19 -49 79
-57 75 -5 -4 -6 1 -3 9 3 9 10 14 14 11 4 -3 11 2 14 11 3 8 10 13 15 10 9 -6
26 22 23 37 -1 4 4 7 11 7 7 0 13 8 14 18 1 9 4 39 7 65 5 59 -14 112 -56 150
-36 32 -84 36 -112 10z"/>
<path d="M290 1360 c0 -5 -9 -11 -20 -15 -42 -13 -51 -147 -12 -184 10 -9 16
-15 14 -14 -8 3 -41 -31 -36 -39 3 -4 1 -8 -4 -8 -5 0 -19 -9 -32 -20 -13 -11
-19 -20 -14 -20 5 0 -2 -7 -14 -16 -12 -8 -20 -20 -16 -25 3 -5 2 -8 -3 -7
-11 4 -73 -59 -65 -66 3 -3 1 -6 -5 -6 -5 0 -10 -6 -10 -12 -1 -17 -13 -89
-18 -108 -8 -32 -18 -109 -16 -130 4 -47 61 -64 80 -24 14 31 33 31 26 1 -4
-13 -8 -32 -10 -43 -2 -10 -4 -21 -5 -24 -1 -3 -2 -8 -1 -12 0 -4 -4 -19 -9
-33 -7 -19 -7 -24 2 -19 7 5 8 3 4 -5 -5 -7 -10 -27 -13 -44 -3 -18 -9 -40
-14 -49 -5 -10 -7 -18 -4 -18 4 0 -1 -7 -10 -16 -9 -9 -14 -23 -11 -30 3 -8 1
-14 -4 -14 -5 0 -17 -22 -27 -50 -10 -27 -21 -50 -26 -50 -4 0 -5 -5 -2 -10 3
-6 2 -10 -2 -10 -13 0 -15 -59 -2 -97 16 -49 78 -58 101 -14 7 14 17 29 23 33
5 4 7 8 2 8 -4 0 0 15 10 33 9 17 18 34 18 37 1 3 8 19 15 35 7 17 14 32 15
35 0 3 9 19 18 37 9 18 19 42 21 55 3 13 5 24 7 26 1 1 3 11 4 22 1 11 3 21 5
23 1 1 3 12 4 24 2 13 5 25 7 28 5 5 75 -98 70 -104 -1 -2 3 -7 9 -11 6 -4 13
-27 15 -52 2 -24 7 -60 11 -79 3 -19 8 -50 9 -69 2 -19 4 -37 5 -40 1 -3 2 -8
1 -12 0 -5 4 -8 9 -8 5 0 9 -3 9 -7 -4 -23 4 -32 33 -38 27 -6 36 -3 55 20 20
23 23 35 19 83 -2 32 -5 57 -6 57 -1 0 -9 61 -15 120 -1 17 -4 30 -5 30 -1 0
-3 15 -5 32 -2 18 -17 53 -34 78 -17 25 -31 50 -31 56 0 5 -4 9 -10 9 -5 0
-10 9 -10 20 0 11 -7 20 -15 20 -8 0 -15 3 -14 8 2 14 -13 52 -22 52 -10 0 1
74 12 78 4 2 6 9 3 17 -3 8 -1 22 4 31 8 15 11 13 17 -14 3 -17 10 -30 14 -29
5 1 33 -21 63 -49 50 -46 88 -64 88 -42 0 5 4 7 9 4 10 -6 21 26 21 61 0 22
-91 123 -111 123 -6 0 -7 5 -4 10 3 6 1 10 -5 10 -6 0 -8 5 -5 10 3 6 1 10 -4
10 -6 0 -11 8 -11 19 0 10 -7 31 -14 47 -8 15 -13 31 -10 36 3 4 0 8 -5 8 -6
0 -11 9 -11 19 0 11 -4 23 -10 26 -5 3 -10 15 -10 26 0 10 -4 19 -10 19 -17 0
-11 22 13 44 12 12 24 29 26 37 9 28 9 99 0 105 -5 3 -7 10 -4 15 4 5 -1 12
-9 15 -9 3 -16 12 -16 20 0 8 -3 14 -7 15 -56 6 -73 6 -73 -1z m-118 -521 c-5
-13 -8 -32 -7 -41 2 -10 -1 -18 -6 -18 -13 0 -11 34 3 65 14 31 22 27 10 -6z
m-17 -86 c-2 -10 -4 -26 -4 -35 -1 -10 -5 -18 -9 -18 -4 0 -6 16 -4 35 2 19 8
35 12 35 5 0 7 -8 5 -17z"/>
</g>
</svg>
